<?xml version="1.0" encoding="UTF-8"?>
<svg width="1000px" height="1000px" viewBox="0 0 1000 1000" version="1.1" xmlns="http://www.w3.org/2000/svg" xmlns:xlink="http://www.w3.org/1999/xlink">
    <!-- Generator: Sketch 53.1 (72631) - https://sketchapp.com -->
    <title>Logo_sign_color</title>
    <desc>Created with Sketch.</desc>
    <g id="Logo_sign_color" stroke="none" stroke-width="1" fill="none" fill-rule="evenodd">
        <g id="Combined-Shape" transform="translate(0.000000, 41.000000)" fill="#007DFF">
            <path d="M403.8,99.8 C394.7,99.8 382.4,108.3 366.9,125.3 C363.6,129 363.4,134.5 366.5,138.3 C380,155 392.5,163.3 403.8,163.4 L428.5,163.4 C433.1,163.4 437.5,165.1 440.8,168.3 L474.7,200.2 C481.9,207 482.3,218.4 475.5,225.6 C475.2,225.9 475,226.1 474.7,226.4 L440.8,258.3 C437.5,261.4 433.1,263.2 428.5,263.2 L319.1,263.2 C310,263.2 297.7,271.7 282.2,288.7 C278.9,292.4 278.7,297.9 281.8,301.7 C295.3,318.4 307.8,326.7 319.1,326.8 L428.6,326.8 C433.2,326.8 437.6,328.5 440.9,331.7 L474.8,363.6 C482,370.4 482.4,381.8 475.6,389 C475.3,389.3 475.1,389.5 474.8,389.8 L440.9,421.7 C437.6,424.8 433.2,426.6 428.6,426.6 L404,426.6 C394.9,426.6 382.6,435.1 367.1,452.1 C363.8,455.8 363.6,461.3 366.7,465.1 C380.2,481.8 392.7,490.1 404,490.2 L428.5,490.2 C433.1,490.2 437.5,491.9 440.8,495.1 L474.7,527 C481.9,533.8 482.3,545.2 475.5,552.4 C475.2,552.7 475,552.9 474.7,553.2 L440.8,585.1 C437.5,588.2 433.1,590 428.5,590 L319.1,590 C310,590 297.7,598.5 282.2,615.5 C278.9,619.2 278.7,624.7 281.8,628.5 C295.3,645.2 307.8,653.5 319.1,653.6 L428.6,653.6 C433.2,653.6 437.6,655.3 440.9,658.5 L474.8,690.4 C482,697.2 482.4,708.6 475.6,715.8 C475.3,716.1 475.1,716.3 474.8,716.6 L440.9,748.5 C437.6,751.6 433.2,753.4 428.6,753.4 L404,753.4 C394.9,753.4 382.6,761.9 367.1,778.9 C363.8,782.6 363.6,788.1 366.7,791.9 C380.2,808.6 392.7,816.9 404,817 L428.5,817 C433.1,817 437.5,818.7 440.8,821.9 L474.7,853.8 C481.9,860.6 482.3,872 475.5,879.2 C475.2,879.5 475,879.7 474.7,880 L440.8,911.9 C437.5,915 433.1,916.8 428.5,916.8 L264.4,916.8 C259.8,916.8 255.4,915.1 252.1,911.9 L218.2,880 C211,873.2 210.6,861.8 217.4,854.6 C217.7,854.3 217.9,854.1 218.2,853.8 L252.1,821.9 C255.4,818.8 259.8,817 264.4,817 L278.7,817 C289.6,817 302,808.6 316,791.7 C319.1,787.9 319.1,782.5 315.9,778.8 C301.2,761.8 288.9,753.3 278.7,753.3 L147.5,753.3 C142.9,753.3 138.5,751.6 135.2,748.4 L101.3,716.5 C94.1,709.7 93.7,698.3 100.5,691.1 C100.8,690.8 101,690.6 101.3,690.3 L135.2,658.4 C138.5,655.3 142.9,653.5 147.5,653.5 L193.7,653.5 C204.6,653.5 217,645.1 231,628.2 C234.1,624.4 234.1,619 230.9,615.3 C216.2,598.3 203.9,589.8 193.7,589.8 L52,589.8 C47.4,589.8 43,588.1 39.7,584.9 L5.7,553.4 C-1.5,546.6 -1.9,535.2 4.9,528 C5.2,527.7 5.4,527.5 5.7,527.2 L39.6,495.3 C42.9,492.2 47.3,490.4 51.9,490.4 L278.7,490.4 C289.6,490.4 302,482 316,465.1 C319.1,461.3 319.1,455.9 315.9,452.2 C301.2,435.2 288.9,426.7 278.7,426.7 L52,426.7 C47.4,426.7 43,425 39.7,421.8 L5.7,389.9 C-1.5,383.1 -1.9,371.7 4.9,364.5 C5.2,364.2 5.4,364 5.7,363.7 L39.6,331.8 C42.9,328.7 47.3,326.9 51.9,326.9 L193.7,326.9 C204.6,326.9 217,318.5 231,301.6 C234.1,297.8 234.1,292.4 230.9,288.7 C216.2,271.7 203.9,263.2 193.7,263.2 L147.5,263.2 C142.9,263.2 138.5,261.5 135.2,258.3 L101.3,226.4 C94.1,219.6 93.7,208.2 100.5,201 C100.8,200.7 101,200.5 101.3,200.2 L135.2,168.3 C138.5,165.2 142.9,163.4 147.5,163.4 L278.4,163.4 C289.3,163.4 301.7,155 315.7,138.1 C318.8,134.3 318.8,128.9 315.6,125.2 C300.9,108.2 288.6,99.7 278.4,99.7 L264.3,99.7 C259.7,99.7 255.3,98 252,94.8 L218.1,63 C210.9,56.2 210.5,44.8 217.3,37.6 C217.6,37.3 217.8,37.1 218.1,36.8 L252,4.9 C255.3,1.8 259.7,0 264.3,0 L428.5,0 C433.1,0 437.5,1.7 440.8,4.9 L474.7,36.8 C481.9,43.6 482.3,55 475.5,62.2 C475.2,62.5 475,62.7 474.7,63 L440.8,94.9 C437.5,98 433.1,99.8 428.5,99.8 L403.8,99.8 Z M596.2,99.8 L571.5,99.8 C566.9,99.8 562.5,98.1 559.2,94.9 L525.2,63 C524.9,62.7 524.7,62.5 524.4,62.2 C517.6,55 517.9,43.6 525.2,36.8 L559.1,4.9 C562.4,1.8 566.8,0 571.4,0 L735.6,0 C740.2,0 744.6,1.7 747.9,4.9 L781.8,36.8 C782.1,37.1 782.3,37.3 782.6,37.6 C789.4,44.8 789.1,56.2 781.8,63 L747.9,94.9 C744.6,98 740.2,99.8 735.6,99.8 L721.5,99.8 C711.4,99.8 699,108.3 684.3,125.3 C681.1,129 681.1,134.5 684.2,138.2 C698.2,155.1 710.6,163.5 721.5,163.5 L852.4,163.5 C857,163.5 861.4,165.2 864.7,168.4 L898.6,200.3 C898.9,200.6 899.1,200.8 899.4,201.1 C906.2,208.3 905.9,219.7 898.6,226.5 L864.7,258.4 C861.4,261.5 857,263.3 852.4,263.3 L806.2,263.3 C796.1,263.3 783.7,271.8 769,288.8 C765.8,292.5 765.8,298 768.9,301.7 C782.9,318.6 795.3,327 806.2,327 L948,327 C952.6,327 957,328.7 960.3,331.9 L994.2,363.8 C994.5,364.1 994.7,364.3 995,364.6 C1001.8,371.8 1001.5,383.2 994.2,390 L960.3,421.9 C957,425 952.6,426.8 948,426.8 L721.3,426.8 C711.2,426.8 698.8,435.3 684.1,452.3 C680.9,456 680.9,461.5 684,465.2 C698,482.1 710.4,490.5 721.3,490.5 L948,490.5 C952.6,490.5 957,492.2 960.3,495.4 L994.2,527.3 C994.5,527.6 994.7,527.8 995,528.1 C1001.8,535.3 1001.5,546.7 994.2,553.5 L960.3,585.4 C957,588.5 952.6,590.3 948,590.3 L806.3,590.3 C796.2,590.3 783.8,598.8 769.1,615.8 C765.9,619.5 765.9,625 769,628.7 C783,645.6 795.4,654 806.3,654 L852.5,654 C857.1,654 861.5,655.7 864.8,658.9 L898.7,690.8 C899,691.1 899.2,691.3 899.5,691.6 C906.3,698.8 906,710.2 898.7,717 L864.8,748.9 C861.5,752 857.1,753.8 852.5,753.8 L721.3,753.8 C711.2,753.8 698.8,762.3 684.1,779.3 C680.9,783 680.9,788.5 684,792.2 C698,809.1 710.4,817.5 721.3,817.5 L735.6,817.5 C740.2,817.5 744.6,819.2 747.9,822.4 L781.8,854.3 C782.1,854.6 782.3,854.8 782.6,855.1 C789.4,862.3 789.1,873.7 781.8,880.5 L747.9,912.4 C744.6,915.5 740.2,917.3 735.6,917.3 L571.4,917.3 C566.8,917.3 562.4,915.6 559.1,912.4 L525.2,880.5 C524.9,880.2 524.7,880 524.4,879.7 C517.6,872.5 517.9,861.1 525.2,854.3 L559.1,822.4 C562.4,819.3 566.8,817.5 571.4,817.5 L596,817.5 C607.3,817.4 619.7,809 633.3,792.4 C636.4,788.6 636.3,783 632.9,779.4 C617.4,762.4 605.1,753.9 596,753.9 L571.5,753.9 C566.9,753.9 562.5,752.2 559.2,749 L525.3,717.1 C525,716.8 524.8,716.6 524.5,716.3 C517.7,709.1 518,697.7 525.3,690.9 L559.2,659 C562.5,655.9 566.9,654.1 571.5,654.1 L681,654.1 C692.3,654 704.7,645.6 718.3,629 C721.4,625.2 721.3,619.6 717.9,616 C702.4,599 690.1,590.5 681,590.5 L571.4,590.5 C566.8,590.5 562.4,588.8 559.1,585.6 L525.2,553.7 C524.9,553.4 524.7,553.2 524.4,552.9 C517.6,545.7 517.9,534.3 525.2,527.5 L559.1,495.6 C562.4,492.5 566.8,490.7 571.4,490.7 L596,490.7 C607.3,490.6 619.7,482.2 633.3,465.6 C636.4,461.8 636.3,456.2 632.9,452.6 C617.4,435.6 605.1,427.1 596,427.1 L571.5,427.1 C566.9,427.1 562.5,425.4 559.2,422.2 L525.3,390.3 C525,390 524.8,389.8 524.5,389.5 C517.7,382.3 518,370.9 525.3,364.1 L559.2,332.2 C562.5,329.1 566.9,327.3 571.5,327.3 L681,327.3 C692.3,327.2 704.7,318.8 718.3,302.2 C721.4,298.4 721.3,292.8 717.9,289.2 C702.4,272.2 690.1,263.7 681,263.7 L571.4,263.7 C566.8,263.7 562.4,262 559.1,258.8 L525.2,226.9 C524.9,226.6 524.7,226.4 524.4,226.1 C517.6,218.9 517.9,207.5 525.2,200.7 L559.1,168.8 C562.4,165.7 566.8,163.9 571.4,163.9 L596.1,163.9 C607.4,163.8 619.8,155.4 633.4,138.8 C636.5,135 636.4,129.4 633,125.8 C617.6,108.3 605.3,99.8 596.2,99.8 Z"></path>
        </g>
    </g>
</svg>